<svg width="269" height="248" viewBox="0 0 269 248" fill="none" xmlns="http://www.w3.org/2000/svg">
<g clip-path="url(#clip0_14_153)">
<path d="M166.428 141.074C165.78 142.201 164.887 142.979 163.837 142.979C152.178 143.626 141.167 146.865 130.156 144.274C118.497 141.683 108.133 146.865 96.474 144.922C93.5592 143.95 90.6444 142.979 88.5393 140.906C75.9735 141.852 68 143.264 68 144.838C68 147.688 94.1551 150.019 126.425 150.019C158.694 150.019 184.856 147.707 184.856 144.838C184.856 143.367 177.776 142.014 166.428 141.074Z" fill="#CCCCCE"/>
<path d="M165.852 54.927L128.433 55.4128L123.853 58.1333L119.617 54.927H110.763V71.3663L107.42 75.5765L102.718 72.6552L101.967 54.927H87.0107V136.56H165.852V54.927Z" fill="#FFDB01"/>
<path d="M93.2936 54.927H88.0859V136.56H93.2936V54.927Z" fill="white"/>
<path d="M165.852 54.927L152.288 55.076V136.56H165.852V54.927Z" fill="#FF8603"/>
<path d="M160.055 145.738H92.8014C90.8796 145.736 89.037 144.972 87.6781 143.613C86.3192 142.254 85.5551 140.412 85.5533 138.49V38.9865C85.5568 37.0659 86.3217 35.225 87.6804 33.8675C89.0391 32.51 90.8807 31.7467 92.8014 31.745H102.446C102.644 31.7317 102.843 31.7593 103.03 31.826C103.217 31.8928 103.389 31.9973 103.534 32.133C103.679 32.2687 103.795 32.4328 103.874 32.6151C103.953 32.7974 103.994 32.9939 103.994 33.1926C103.994 33.3913 103.953 33.5879 103.874 33.7702C103.795 33.9525 103.679 34.1166 103.534 34.2523C103.389 34.388 103.217 34.4925 103.03 34.5592C102.843 34.626 102.644 34.6536 102.446 34.6403H92.8014C91.6492 34.642 90.5447 35.1005 89.73 35.9152C88.9153 36.7299 88.4568 37.8344 88.4551 38.9865V138.49C88.4568 139.643 88.9151 140.748 89.7296 141.564C90.5441 142.379 91.6486 142.839 92.8014 142.843H160.055C161.207 142.839 162.312 142.379 163.126 141.564C163.941 140.748 164.399 139.643 164.401 138.49V38.9865C164.399 37.8344 163.941 36.7299 163.126 35.9152C162.311 35.1005 161.207 34.642 160.055 34.6403H127.526C127.328 34.6536 127.129 34.626 126.942 34.5592C126.754 34.4925 126.583 34.388 126.438 34.2523C126.293 34.1166 126.177 33.9525 126.098 33.7702C126.019 33.5879 125.978 33.3913 125.978 33.1926C125.978 32.9939 126.019 32.7974 126.098 32.6151C126.177 32.4328 126.293 32.2687 126.438 32.133C126.583 31.9973 126.754 31.8928 126.942 31.826C127.129 31.7593 127.328 31.7317 127.526 31.745H160.055C161.974 31.7484 163.814 32.5124 165.171 33.8698C166.529 35.2271 167.293 37.067 167.296 38.9865V138.49C167.294 140.411 166.531 142.252 165.174 143.611C163.816 144.97 161.975 145.735 160.055 145.738Z" fill="#231F20"/>
<path d="M120.181 34.6403H110.763C110.565 34.6536 110.366 34.626 110.178 34.5592C109.991 34.4925 109.82 34.388 109.675 34.2523C109.53 34.1166 109.414 33.9525 109.335 33.7702C109.256 33.5879 109.215 33.3913 109.215 33.1926C109.215 32.9939 109.256 32.7974 109.335 32.6151C109.414 32.4328 109.53 32.2687 109.675 32.133C109.82 31.9973 109.991 31.8928 110.178 31.826C110.366 31.7593 110.565 31.7317 110.763 31.745H120.181C120.379 31.7317 120.578 31.7593 120.765 31.826C120.952 31.8928 121.124 31.9973 121.269 32.133C121.414 32.2687 121.529 32.4328 121.609 32.6151C121.688 32.7974 121.728 32.9939 121.728 33.1926C121.728 33.3913 121.688 33.5879 121.609 33.7702C121.529 33.9525 121.414 34.1166 121.269 34.2523C121.124 34.388 120.952 34.4925 120.765 34.5592C120.578 34.626 120.379 34.6536 120.181 34.6403Z" fill="#231F20"/>
<path d="M165.852 138.49H87.0042C86.806 138.503 86.6071 138.476 86.42 138.409C86.2328 138.342 86.0614 138.238 85.9162 138.102C85.7711 137.966 85.6554 137.802 85.5763 137.62C85.4973 137.438 85.4564 137.241 85.4564 137.042C85.4564 136.844 85.4973 136.647 85.5763 136.465C85.6554 136.282 85.7711 136.118 85.9162 135.983C86.0614 135.847 86.2328 135.742 86.42 135.676C86.6071 135.609 86.806 135.581 87.0042 135.595H165.852C166.219 135.619 166.563 135.782 166.814 136.051C167.066 136.32 167.206 136.674 167.206 137.042C167.206 137.41 167.066 137.765 166.814 138.033C166.563 138.302 166.219 138.465 165.852 138.49Z" fill="#231F20"/>
<path d="M165.852 56.8637H128.433C128.048 56.8637 127.679 56.7109 127.407 56.4388C127.135 56.1667 126.982 55.7976 126.982 55.4128C126.982 55.028 127.135 54.659 127.407 54.3869C127.679 54.1148 128.048 53.9619 128.433 53.9619H165.852C166.237 53.9619 166.606 54.1148 166.878 54.3869C167.15 54.659 167.303 55.028 167.303 55.4128C167.303 55.7976 167.15 56.1667 166.878 56.4388C166.606 56.7109 166.237 56.8637 165.852 56.8637Z" fill="#231F20"/>
<path d="M120.181 56.8637H112.207C111.822 56.8637 111.453 56.7109 111.181 56.4388C110.909 56.1667 110.756 55.7976 110.756 55.4128C110.756 55.028 110.909 54.659 111.181 54.3869C111.453 54.1148 111.822 53.9619 112.207 53.9619H120.181C120.565 53.9619 120.935 54.1148 121.207 54.3869C121.479 54.659 121.632 55.028 121.632 55.4128C121.632 55.7976 121.479 56.1667 121.207 56.4388C120.935 56.7109 120.565 56.8637 120.181 56.8637Z" fill="#231F20"/>
<path d="M101.967 56.8637H87.0042C86.6194 56.8637 86.2504 56.7109 85.9783 56.4388C85.7062 56.1667 85.5533 55.7976 85.5533 55.4128C85.5533 55.028 85.7062 54.659 85.9783 54.3869C86.2504 54.1148 86.6194 53.9619 87.0042 53.9619H101.967C102.351 53.9619 102.72 54.1148 102.993 54.3869C103.265 54.659 103.418 55.028 103.418 55.4128C103.418 55.7976 103.265 56.1667 102.993 56.4388C102.72 56.7109 102.351 56.8637 101.967 56.8637Z" fill="#231F20"/>
<path d="M163.98 36.0912C163.772 36.0925 163.566 36.0482 163.377 35.9617C163.201 35.8828 163.043 35.7696 162.911 35.6287C162.779 35.4878 162.677 35.322 162.61 35.141C162.543 34.9601 162.513 34.7676 162.521 34.5749C162.529 34.3821 162.576 34.193 162.658 34.0185C163.508 32.1438 163.873 30.0862 163.722 28.0337C163.57 25.9813 162.906 23.9997 161.791 22.2702C160.675 20.5406 159.144 19.1185 157.337 18.1337C155.53 17.149 153.504 16.6332 151.446 16.6336C150.898 16.6324 150.351 16.6692 149.808 16.7437C149.603 16.77 149.394 16.7524 149.197 16.6921C148.999 16.6318 148.816 16.5302 148.661 16.3939C148.505 16.2589 148.38 16.0918 148.295 15.9039C148.21 15.716 148.167 15.5119 148.169 15.3057V15.1956C148.179 12.5309 147.324 9.9348 145.733 7.79758C144.141 5.66036 141.899 4.09748 139.343 3.34383C136.787 2.59019 134.055 2.68651 131.559 3.61832C129.062 4.55013 126.936 6.26708 125.498 8.5111C125.391 8.67803 125.25 8.82144 125.085 8.93274C124.921 9.04404 124.735 9.12094 124.54 9.15882C124.345 9.19416 124.145 9.18881 123.952 9.14311C123.759 9.09741 123.578 9.01235 123.419 8.89326C121.586 7.54092 119.414 6.72384 117.144 6.53299C114.874 6.34214 112.596 6.78502 110.563 7.8123C108.53 8.83958 106.822 10.411 105.629 12.3515C104.436 14.292 103.805 16.5256 103.806 18.8034C103.806 19.1014 103.806 19.4188 103.852 19.8009C103.871 20.0567 103.823 20.3132 103.712 20.5443C103.6 20.7754 103.429 20.9727 103.217 21.1163C103.004 21.2598 102.757 21.3444 102.501 21.3614C102.245 21.3783 101.989 21.3271 101.759 21.213C100.487 20.5739 99.0828 20.2433 97.6593 20.2479C95.2119 20.2496 92.8652 21.2226 91.1346 22.9532C89.4039 24.6838 88.4309 27.0305 88.4292 29.4779C88.4233 30.9331 88.7677 32.3682 89.4332 33.6622C89.5788 34.0023 89.5889 34.3852 89.4616 34.7325C89.3342 35.0798 89.0791 35.3654 88.7482 35.5308C88.4173 35.6963 88.0358 35.7291 87.6815 35.6225C87.3272 35.516 87.0271 35.2782 86.8423 34.9577C85.7787 32.8562 85.349 30.4909 85.6057 28.1496C85.8623 25.8083 86.7942 23.5922 88.2879 21.7711C89.7816 19.95 91.7725 18.6026 94.0183 17.8928C96.2641 17.183 98.6679 17.1416 100.937 17.7736C101.195 13.9243 102.904 10.3165 105.72 7.67959C108.536 5.0427 112.249 3.57347 116.106 3.56896C118.846 3.56579 121.533 4.31166 123.879 5.72588C125.762 3.34649 128.313 1.58488 131.206 0.667721C134.098 -0.249437 137.198 -0.280179 140.108 0.579452C143.018 1.43908 145.604 3.14975 147.533 5.49135C149.463 7.83294 150.647 10.6983 150.935 13.7188H151.382C153.924 13.7213 156.425 14.3607 158.656 15.5786C160.888 16.7965 162.778 18.5541 164.156 20.6908C165.533 22.8275 166.353 25.2753 166.54 27.8105C166.728 30.3457 166.278 32.8876 165.23 35.2038C165.126 35.4541 164.953 35.6701 164.732 35.827C164.511 35.984 164.25 36.0755 163.98 36.0912Z" fill="#231F20"/>
<path d="M140.856 21.6599C140.578 21.6615 140.305 21.5827 140.07 21.433C139.836 21.2832 139.649 21.0688 139.534 20.8156C139.418 20.5624 139.378 20.2812 139.418 20.0059C139.459 19.7305 139.578 19.4726 139.761 19.2633C141.817 16.8803 144.544 15.1728 147.585 14.3639C150.627 13.555 153.842 13.6823 156.809 14.7292C157 14.7835 157.177 14.876 157.33 15.0012C157.483 15.1264 157.609 15.2816 157.7 15.4572C157.791 15.6329 157.845 15.8253 157.859 16.0227C157.873 16.22 157.847 16.4181 157.781 16.6048C157.716 16.7915 157.613 16.9628 157.479 17.1082C157.344 17.2537 157.182 17.3701 157.001 17.4505C156.82 17.5308 156.625 17.5734 156.427 17.5755C156.229 17.5775 156.033 17.5392 155.851 17.4626C153.431 16.6095 150.81 16.5067 148.331 17.1678C145.852 17.8289 143.631 19.223 141.957 21.1676C141.82 21.3245 141.651 21.4498 141.461 21.5348C141.271 21.6198 141.064 21.6625 140.856 21.6599Z" fill="#231F20"/>
<path d="M106.604 76.4898C103.515 76.4898 101.002 74.1903 101.002 71.3663V33.4355C100.988 33.2373 101.016 33.0384 101.083 32.8513C101.149 32.6641 101.254 32.4927 101.39 32.3475C101.525 32.2024 101.689 32.0867 101.872 32.0076C102.054 31.9285 102.251 31.8877 102.449 31.8877C102.648 31.8877 102.844 31.9285 103.027 32.0076C103.209 32.0867 103.373 32.2024 103.509 32.3475C103.645 32.4927 103.749 32.6641 103.816 32.8513C103.883 33.0384 103.91 33.2373 103.897 33.4355V71.3663C103.897 72.5905 105.115 73.588 106.604 73.588C108.094 73.588 109.312 72.5905 109.312 71.3663V33.4355C109.299 33.2373 109.326 33.0384 109.393 32.8513C109.46 32.6641 109.564 32.4927 109.7 32.3475C109.836 32.2024 110 32.0867 110.182 32.0076C110.364 31.9285 110.561 31.8877 110.76 31.8877C110.958 31.8877 111.155 31.9285 111.337 32.0076C111.519 32.0867 111.683 32.2024 111.819 32.3475C111.955 32.4927 112.059 32.6641 112.126 32.8513C112.193 33.0384 112.22 33.2373 112.207 33.4355V71.3663C112.207 74.1903 109.694 76.4898 106.604 76.4898Z" fill="#231F20"/>
<path d="M123.853 59.5842C122.495 59.5824 121.193 59.0421 120.232 58.0816C119.272 57.1212 118.731 55.819 118.73 54.4607V33.4355C118.73 33.0507 118.883 32.6817 119.155 32.4096C119.427 32.1375 119.796 31.9846 120.181 31.9846C120.565 31.9846 120.935 32.1375 121.207 32.4096C121.479 32.6817 121.632 33.0507 121.632 33.4355V54.4607C121.632 55.0499 121.866 55.615 122.282 56.0316C122.699 56.4483 123.264 56.6824 123.853 56.6824C124.443 56.6824 125.008 56.4483 125.424 56.0316C125.841 55.615 126.075 55.0499 126.075 54.4607V33.4355C126.075 33.0507 126.228 32.6817 126.5 32.4096C126.772 32.1375 127.141 31.9846 127.526 31.9846C127.911 31.9846 128.28 32.1375 128.552 32.4096C128.824 32.6817 128.977 33.0507 128.977 33.4355V54.4607C128.975 55.819 128.435 57.1212 127.474 58.0816C126.514 59.0421 125.212 59.5824 123.853 59.5842Z" fill="#231F20"/>
<path d="M194.345 129.435H165.845C165.46 129.435 165.091 129.282 164.819 129.01C164.547 128.738 164.394 128.369 164.394 127.984V118.683C164.394 118.298 164.547 117.929 164.819 117.657C165.091 117.384 165.46 117.232 165.845 117.232H186.229C186.992 117.232 187.723 116.929 188.263 116.389C188.802 115.85 189.105 115.118 189.105 114.356V63.1272C189.105 62.3645 188.802 61.633 188.263 61.0936C187.723 60.5543 186.992 60.2513 186.229 60.2513H165.852C165.467 60.2513 165.098 60.0985 164.826 59.8264C164.554 59.5543 164.401 59.1852 164.401 58.8004V49.4926C164.401 49.3024 164.438 49.114 164.511 48.9384C164.584 48.7627 164.691 48.6032 164.826 48.469C164.961 48.3347 165.121 48.2285 165.297 48.1563C165.473 48.0841 165.661 48.0473 165.852 48.0482H194.352C196.269 48.0499 198.108 48.8116 199.466 50.1665C200.823 51.5214 201.588 53.359 201.593 55.2768V122.193C201.59 124.114 200.825 125.955 199.466 127.312C198.107 128.67 196.266 129.433 194.345 129.435ZM167.296 126.526H194.345C195.497 126.525 196.602 126.066 197.416 125.252C198.231 124.437 198.69 123.332 198.691 122.18V55.2768C198.69 54.1246 198.231 53.0201 197.416 52.2054C196.602 51.3907 195.497 50.9323 194.345 50.9306H167.296V57.343H186.236C187.766 57.3447 189.233 57.9533 190.315 59.0353C191.397 60.1172 192.005 61.5842 192.007 63.1143V114.343C192.005 115.873 191.397 117.34 190.315 118.422C189.233 119.504 187.766 120.112 186.236 120.114H167.296V126.526Z" fill="#231F20"/>
<path d="M115.064 129.797H107.148C105.271 129.747 103.49 128.957 102.192 127.599C100.894 126.242 100.185 124.427 100.218 122.549V70.0838C100.213 68.7852 100.548 67.508 101.189 66.3788C101.385 66.0537 101.699 65.8179 102.066 65.722C102.433 65.6261 102.823 65.6776 103.152 65.8656C103.482 66.0536 103.724 66.363 103.828 66.7277C103.933 67.0924 103.89 67.4833 103.709 67.8167C103.317 68.5078 103.111 69.2892 103.113 70.0838V122.549C103.073 123.661 103.475 124.744 104.231 125.56C104.988 126.376 106.037 126.858 107.148 126.902H115.064C116.175 126.857 117.223 126.373 117.979 125.558C118.735 124.742 119.138 123.661 119.099 122.549V70.0838C119.138 68.973 118.735 67.8922 117.978 67.0777C117.222 66.2633 116.174 65.7814 115.064 65.7375H111.637C111.252 65.7375 110.883 65.5847 110.611 65.3126C110.339 65.0405 110.186 64.6714 110.186 64.2866C110.186 63.9018 110.339 63.5328 110.611 63.2607C110.883 62.9886 111.252 62.8357 111.637 62.8357H115.064C116.941 62.8867 118.722 63.6767 120.02 65.034C121.318 66.3913 122.027 68.2061 121.994 70.0838V122.549C122.027 124.427 121.318 126.242 120.02 127.599C118.722 128.957 116.941 129.747 115.064 129.797Z" fill="#231F20"/>
<path d="M146.802 129.797H138.88C137.003 129.747 135.222 128.957 133.924 127.599C132.626 126.242 131.917 124.427 131.95 122.549V70.0838C131.917 68.2061 132.626 66.3913 133.924 65.034C135.222 63.6767 137.003 62.8867 138.88 62.8357H146.802C148.679 62.8867 150.461 63.6767 151.759 65.034C153.056 66.3913 153.766 68.2061 153.733 70.0838V122.549C153.766 124.427 153.056 126.242 151.759 127.599C150.461 128.957 148.679 129.747 146.802 129.797ZM138.88 65.7181C137.771 65.7636 136.725 66.2462 135.97 67.0605C135.215 67.8748 134.813 68.9547 134.852 70.0643V122.53C134.811 123.641 135.213 124.722 135.968 125.538C136.723 126.354 137.77 126.837 138.88 126.883H146.802C147.913 126.837 148.961 126.354 149.717 125.538C150.473 124.723 150.876 123.641 150.837 122.53V70.0643C150.876 68.9536 150.473 67.8728 149.717 67.0583C148.961 66.2438 147.913 65.762 146.802 65.7181H138.88Z" fill="#231F20"/>
</g>
<path d="M4.4 165H20.75C23.2167 165 25.35 165.433 27.15 166.3C28.95 167.133 30.35 168.283 31.35 169.75C32.35 171.217 32.85 172.9 32.85 174.8C32.85 177 32.4 178.833 31.5 180.3C30.6333 181.733 29.45 182.617 27.95 182.95L28 183.1C29 183.167 30.0333 183.617 31.1 184.45C32.2 185.25 33.1167 186.367 33.85 187.8C34.6167 189.233 35 190.967 35 193C35 195.133 34.4667 197.033 33.4 198.7C32.3667 200.333 30.85 201.633 28.85 202.6C26.8833 203.533 24.5 204 21.7 204H4.4V165ZM21.7 201.6C25.0667 201.6 27.7167 200.817 29.65 199.25C31.6167 197.65 32.6 195.567 32.6 193C32.6 191.5 32.2333 190.067 31.5 188.7C30.8 187.3 29.8333 186.15 28.6 185.25C27.3667 184.317 26 183.783 24.5 183.65L24.3 182.95C25.9667 182.617 27.2333 182 28.1 181.1C29 180.2 29.6167 179.183 29.95 178.05C30.2833 176.883 30.45 175.8 30.45 174.8C30.45 172.567 29.55 170.783 27.75 169.45C25.95 168.083 23.6167 167.4 20.75 167.4H6.8V201.6H21.7ZM11.1 169.95H19.35C21.3167 169.95 22.95 170.55 24.25 171.75C25.55 172.95 26.2 174.533 26.2 176.5C26.2 178.367 25.6333 179.883 24.5 181.05C23.3667 182.183 21.7167 182.75 19.55 182.75H11.1V169.95ZM19.55 180.35C20.9167 180.35 21.9667 180 22.7 179.3C23.4333 178.6 23.8 177.667 23.8 176.5C23.8 175.233 23.3667 174.233 22.5 173.5C21.6667 172.733 20.6167 172.35 19.35 172.35H13.5V180.35H19.55ZM11.1 184.95H20.15C22.5167 184.95 24.45 185.567 25.95 186.8C27.4833 188.033 28.25 189.7 28.25 191.8C28.25 193.967 27.55 195.683 26.15 196.95C24.7833 198.217 22.8667 198.85 20.4 198.85H11.1V184.95ZM20.4 196.45C22.0667 196.45 23.3833 196.05 24.35 195.25C25.35 194.417 25.85 193.267 25.85 191.8C25.85 190.367 25.3 189.267 24.2 188.5C23.1333 187.733 21.7833 187.35 20.15 187.35H13.5V196.45H20.4ZM59.6664 167.4H51.5664L39.3164 204H36.8164L49.8164 165H61.4164L74.4164 204H71.8164L59.6664 167.4ZM54.0664 171.35H56.9664L62.9664 189.6H48.0664L54.0664 171.35ZM59.6664 187.2C59.4997 186.667 59.2331 185.867 58.8664 184.8C58.4997 183.733 58.0997 182.55 57.6664 181.25C57.2331 179.917 56.8331 178.6 56.4664 177.3C56.0997 175.967 55.8331 174.783 55.6664 173.75H55.3664C55.1997 174.75 54.9331 175.917 54.5664 177.25C54.2331 178.55 53.8497 179.867 53.4164 181.2C52.9831 182.5 52.5831 183.7 52.2164 184.8C51.8497 185.867 51.5831 186.667 51.4164 187.2H59.6664ZM62.1664 194.85H48.9664L45.8664 204H43.3664L47.2664 192.45H63.9164L67.6664 204H65.1664L62.1664 194.85ZM97.8641 186.1C99.8641 185.367 101.414 184.567 102.514 183.7C103.647 182.833 104.431 181.817 104.864 180.65C105.331 179.483 105.564 178.117 105.564 176.55C105.564 174.683 105.114 173.067 104.214 171.7C103.347 170.333 102.147 169.283 100.614 168.55C99.0807 167.783 97.3141 167.4 95.3141 167.4H81.2141V204H78.8141V165H95.3141C97.8141 165 100.014 165.483 101.914 166.45C103.814 167.417 105.297 168.767 106.364 170.5C107.431 172.2 107.964 174.217 107.964 176.55C107.964 179.583 107.381 181.967 106.214 183.7C105.081 185.4 103.447 186.633 101.314 187.4L110.564 204H107.714L97.8641 186.1ZM85.4141 170.2H93.6141C95.8807 170.2 97.6974 170.817 99.0641 172.05C100.431 173.25 101.114 174.9 101.114 177C101.114 179.3 100.431 181.083 99.0641 182.35C97.7307 183.617 95.9307 184.25 93.6641 184.25H85.4141V170.2ZM93.6641 181.85C95.1974 181.85 96.4141 181.433 97.3141 180.6C98.2474 179.733 98.7141 178.533 98.7141 177C98.7141 175.6 98.2307 174.517 97.2641 173.75C96.3307 172.983 95.1141 172.6 93.6141 172.6H87.8141V181.85H93.6641ZM92.8641 189H87.7641V204H85.3641V186.6H94.4141L102.414 204H99.7641L92.8641 189ZM115.728 165H132.078C134.545 165 136.678 165.433 138.478 166.3C140.278 167.133 141.678 168.283 142.678 169.75C143.678 171.217 144.178 172.9 144.178 174.8C144.178 177 143.728 178.833 142.828 180.3C141.961 181.733 140.778 182.617 139.278 182.95L139.328 183.1C140.328 183.167 141.361 183.617 142.428 184.45C143.528 185.25 144.445 186.367 145.178 187.8C145.945 189.233 146.328 190.967 146.328 193C146.328 195.133 145.795 197.033 144.728 198.7C143.695 200.333 142.178 201.633 140.178 202.6C138.211 203.533 135.828 204 133.028 204H115.728V165ZM133.028 201.6C136.395 201.6 139.045 200.817 140.978 199.25C142.945 197.65 143.928 195.567 143.928 193C143.928 191.5 143.561 190.067 142.828 188.7C142.128 187.3 141.161 186.15 139.928 185.25C138.695 184.317 137.328 183.783 135.828 183.65L135.628 182.95C137.295 182.617 138.561 182 139.428 181.1C140.328 180.2 140.945 179.183 141.278 178.05C141.611 176.883 141.778 175.8 141.778 174.8C141.778 172.567 140.878 170.783 139.078 169.45C137.278 168.083 134.945 167.4 132.078 167.4H118.128V201.6H133.028ZM122.428 169.95H130.678C132.645 169.95 134.278 170.55 135.578 171.75C136.878 172.95 137.528 174.533 137.528 176.5C137.528 178.367 136.961 179.883 135.828 181.05C134.695 182.183 133.045 182.75 130.878 182.75H122.428V169.95ZM130.878 180.35C132.245 180.35 133.295 180 134.028 179.3C134.761 178.6 135.128 177.667 135.128 176.5C135.128 175.233 134.695 174.233 133.828 173.5C132.995 172.733 131.945 172.35 130.678 172.35H124.828V180.35H130.878ZM122.428 184.95H131.478C133.845 184.95 135.778 185.567 137.278 186.8C138.811 188.033 139.578 189.7 139.578 191.8C139.578 193.967 138.878 195.683 137.478 196.95C136.111 198.217 134.195 198.85 131.728 198.85H122.428V184.95ZM131.728 196.45C133.395 196.45 134.711 196.05 135.678 195.25C136.678 194.417 137.178 193.267 137.178 191.8C137.178 190.367 136.628 189.267 135.528 188.5C134.461 187.733 133.111 187.35 131.478 187.35H124.828V196.45H131.728ZM171.595 186.1C173.595 185.367 175.145 184.567 176.245 183.7C177.378 182.833 178.161 181.817 178.595 180.65C179.061 179.483 179.295 178.117 179.295 176.55C179.295 174.683 178.845 173.067 177.945 171.7C177.078 170.333 175.878 169.283 174.345 168.55C172.811 167.783 171.045 167.4 169.045 167.4H154.945V204H152.545V165H169.045C171.545 165 173.745 165.483 175.645 166.45C177.545 167.417 179.028 168.767 180.095 170.5C181.161 172.2 181.695 174.217 181.695 176.55C181.695 179.583 181.111 181.967 179.945 183.7C178.811 185.4 177.178 186.633 175.045 187.4L184.295 204H181.445L171.595 186.1ZM159.145 170.2H167.345C169.611 170.2 171.428 170.817 172.795 172.05C174.161 173.25 174.845 174.9 174.845 177C174.845 179.3 174.161 181.083 172.795 182.35C171.461 183.617 169.661 184.25 167.395 184.25H159.145V170.2ZM167.395 181.85C168.928 181.85 170.145 181.433 171.045 180.6C171.978 179.733 172.445 178.533 172.445 177C172.445 175.6 171.961 174.517 170.995 173.75C170.061 172.983 168.845 172.6 167.345 172.6H161.545V181.85H167.395ZM166.595 189H161.495V204H159.095V186.6H168.145L176.145 204H173.495L166.595 189ZM189.459 165H216.459V167.4H191.859V201.6H217.459V204H189.459V165ZM196.159 170.2H216.459V172.6H198.559V180.3H213.909V182.7H196.159V170.2ZM196.159 185.35H213.909V187.75H198.559V196.4H217.459V198.8H196.159V185.35ZM246.731 167.4H241.231L235.531 197.1H233.181L227.181 165H229.631L233.381 185.25C233.648 186.55 233.848 188.083 233.981 189.85C234.148 191.583 234.231 193.133 234.231 194.5H234.431C234.498 193.6 234.565 192.617 234.631 191.55C234.698 190.45 234.781 189.367 234.881 188.3C235.015 187.2 235.165 186.233 235.331 185.4L239.281 165H248.681L252.931 185.2C253.131 186.2 253.315 187.567 253.481 189.3C253.648 191.033 253.781 192.683 253.881 194.25H254.081C254.148 192.683 254.248 191.067 254.381 189.4C254.548 187.733 254.715 186.383 254.881 185.35L258.331 165H260.731L255.331 196.85H252.931L246.731 167.4ZM245.131 184.45C244.998 183.683 244.865 182.767 244.731 181.7C244.598 180.633 244.481 179.567 244.381 178.5C244.281 177.433 244.198 176.5 244.131 175.7C244.065 174.867 244.031 174.333 244.031 174.1H243.931C243.931 174.333 243.898 174.867 243.831 175.7C243.765 176.5 243.681 177.433 243.581 178.5C243.481 179.567 243.365 180.633 243.231 181.7C243.098 182.767 242.965 183.683 242.831 184.45L239.281 204H228.931L220.581 165H223.031L230.881 201.6H237.281L242.731 171.5H245.081L250.831 201.6H256.881L264.531 165H266.981L258.831 204H248.831L245.131 184.45Z" fill="black"/>
<path d="M59.94 232.86C60.6867 232.993 61.32 233.387 61.84 234.04C62.36 234.693 62.62 235.433 62.62 236.26C62.62 236.967 62.4333 237.607 62.06 238.18C61.7 238.74 61.1733 239.187 60.48 239.52C59.7867 239.84 58.98 240 58.06 240H52.5V226.1H57.8C58.7467 226.1 59.56 226.26 60.24 226.58C60.92 226.9 61.4333 227.333 61.78 227.88C62.1267 228.413 62.3 229.013 62.3 229.68C62.3 230.48 62.0867 231.147 61.66 231.68C61.2333 232.213 60.66 232.607 59.94 232.86ZM54.78 231.94H57.6C58.3467 231.94 58.9267 231.773 59.34 231.44C59.7667 231.093 59.98 230.6 59.98 229.96C59.98 229.333 59.7667 228.847 59.34 228.5C58.9267 228.14 58.3467 227.96 57.6 227.96H54.78V231.94ZM57.86 238.14C58.6333 238.14 59.24 237.953 59.68 237.58C60.12 237.207 60.34 236.687 60.34 236.02C60.34 235.34 60.1067 234.8 59.64 234.4C59.1733 234 58.5533 233.8 57.78 233.8H54.78V238.14H57.86ZM75.3777 227.94V232.02H80.1777V233.88H75.3777V238.14H80.7777V240H73.0977V226.08H80.7777V227.94H75.3777ZM93.8659 227.94V232.02H98.6659V233.88H93.8659V238.14H99.2659V240H91.5859V226.08H99.2659V227.94H93.8659ZM117.294 240L114.094 234.44H112.354V240H110.074V226.1H114.874C115.941 226.1 116.841 226.287 117.574 226.66C118.321 227.033 118.874 227.533 119.234 228.16C119.608 228.787 119.794 229.487 119.794 230.26C119.794 231.167 119.528 231.993 118.994 232.74C118.474 233.473 117.668 233.973 116.574 234.24L120.014 240H117.294ZM112.354 232.62H114.874C115.728 232.62 116.368 232.407 116.794 231.98C117.234 231.553 117.454 230.98 117.454 230.26C117.454 229.54 117.241 228.98 116.814 228.58C116.388 228.167 115.741 227.96 114.874 227.96H112.354V232.62ZM143.146 233.02C143.146 231.66 143.46 230.44 144.086 229.36C144.726 228.28 145.586 227.44 146.666 226.84C147.76 226.227 148.953 225.92 150.246 225.92C151.726 225.92 153.04 226.287 154.186 227.02C155.346 227.74 156.186 228.767 156.706 230.1H153.966C153.606 229.367 153.106 228.82 152.466 228.46C151.826 228.1 151.086 227.92 150.246 227.92C149.326 227.92 148.506 228.127 147.786 228.54C147.066 228.953 146.5 229.547 146.086 230.32C145.686 231.093 145.486 231.993 145.486 233.02C145.486 234.047 145.686 234.947 146.086 235.72C146.5 236.493 147.066 237.093 147.786 237.52C148.506 237.933 149.326 238.14 150.246 238.14C151.086 238.14 151.826 237.96 152.466 237.6C153.106 237.24 153.606 236.693 153.966 235.96H156.706C156.186 237.293 155.346 238.32 154.186 239.04C153.04 239.76 151.726 240.12 150.246 240.12C148.94 240.12 147.746 239.82 146.666 239.22C145.586 238.607 144.726 237.76 144.086 236.68C143.46 235.6 143.146 234.38 143.146 233.02ZM175.755 237.16H169.935L168.935 240H166.555L171.535 226.08H174.175L179.155 240H176.755L175.755 237.16ZM175.115 235.3L172.855 228.84L170.575 235.3H175.115ZM197.5 226.1V227.96H191.6V232.06H196.2V233.92H191.6V240H189.32V226.1H197.5ZM209.893 227.94V232.02H214.693V233.88H209.893V238.14H215.293V240H207.613V226.08H215.293V227.94H209.893Z" fill="black"/>
<defs>
<clipPath id="clip0_14_153">
<rect width="133.593" height="150" fill="white" transform="translate(68)"/>
</clipPath>
</defs>
</svg>
